<?xml version="1.0" encoding="UTF-8"?>
<!DOCTYPE svg PUBLIC "-//W3C//DTD SVG 1.1//EN" "http://www.w3.org/Graphics/SVG/1.1/DTD/svg11.dtd">
<svg xmlns="http://www.w3.org/2000/svg" version="1.1" width="1151px" height="323px" style="shape-rendering:geometricPrecision; text-rendering:geometricPrecision; image-rendering:optimizeQuality; fill-rule:evenodd; clip-rule:evenodd" xmlns:xlink="http://www.w3.org/1999/xlink">
<g><path style="opacity:0.938" fill="#fbfbfb" d="M 186.5,51.5 C 188.315,64.4419 189.149,77.4419 189,90.5C 189.333,87.1667 189.667,83.8333 190,80.5C 190.767,84.5575 190.6,88.5575 189.5,92.5C 170.178,93.4996 150.845,93.8329 131.5,93.5C 131.248,96.3198 131.748,98.9865 133,101.5C 133.667,100.833 134.333,100.167 135,99.5C 136.533,99.9437 138.033,100.277 139.5,100.5C 140.799,99.91 141.632,98.91 142,97.5C 146.92,98.0051 152.254,98.3384 158,98.5C 160.04,95.8537 162.04,95.8537 164,98.5C 165.117,98.3349 166.284,98.0016 167.5,97.5C 168.541,99.9913 169.374,99.9913 170,97.5C 171.779,98.4791 173.445,98.1458 175,96.5C 177.208,97.4453 179.708,97.4453 182.5,96.5C 182.833,97.1667 183.167,97.8333 183.5,98.5C 184.814,97.6872 185.981,96.6872 187,95.5C 187.5,96 188,96.5 188.5,97C 187.044,97.4226 186.544,98.2559 187,99.5C 188.194,98.5697 189.527,97.9031 191,97.5C 194.047,98.751 197.047,98.751 200,97.5C 201.892,98.13 203.559,99.13 205,100.5C 205.851,97.3876 207.017,97.0542 208.5,99.5C 210.042,98.2532 211.542,98.2532 213,99.5C 213.333,94.5 213.667,89.5 214,84.5C 214.432,94.3005 215.266,103.634 216.5,112.5C 216.5,113.5 216.5,114.5 216.5,115.5C 195.833,115.5 175.167,115.5 154.5,115.5C 154.5,125.5 154.5,135.5 154.5,145.5C 173.5,145.5 192.5,145.5 211.5,145.5C 211.5,153.833 211.5,162.167 211.5,170.5C 192.5,170.5 173.5,170.5 154.5,170.5C 154.5,182.833 154.5,195.167 154.5,207.5C 193.835,207.667 233.168,207.5 272.5,207C 274.129,203.943 275.462,200.777 276.5,197.5C 277.397,198.598 278.23,198.598 279,197.5C 278.671,200.701 277.838,203.867 276.5,207C 274.314,209.244 271.981,210.577 269.5,211C 270.833,211.667 271.833,212.667 272.5,214C 271.167,214.667 271.167,215.333 272.5,216C 271.264,218.539 270.264,221.039 269.5,223.5C 270.019,226.727 270.352,229.894 270.5,233C 269.12,234.324 268.786,235.657 269.5,237C 267.699,237.317 267.366,237.984 268.5,239C 267.833,239.333 267.167,239.667 266.5,240C 267.711,241.113 267.711,242.28 266.5,243.5C 267.025,244.192 267.692,244.692 268.5,245C 265.508,246.107 264.841,247.774 266.5,250C 265.672,250.915 264.672,251.581 263.5,252C 264.603,253.68 264.27,255.18 262.5,256.5C 263.383,258.48 263.217,260.48 262,262.5C 259.732,263.076 258.732,264.41 259,266.5C 265.919,261.752 272.086,256.085 277.5,249.5C 278.298,249.957 278.631,250.624 278.5,251.5C 245.305,288.853 203.639,304.687 153.5,299C 115.585,293.06 85.2518,274.893 62.5,244.5C 62.3505,243.448 62.5172,242.448 63,241.5C 69.7084,252.034 77.5417,260.034 86.5,265.5C 84.2783,262.548 82.6117,259.048 81.5,255C 82.6341,253.984 82.3008,253.317 80.5,253C 83.1667,252.333 83.1667,251.667 80.5,251C 80.8333,250.667 81.1667,250.333 81.5,250C 80.9522,247.083 79.9522,244.083 78.5,241C 78.9574,240.586 79.2907,240.086 79.5,239.5C 77.5614,237.878 77.228,236.044 78.5,234C 77.6919,233.692 77.0253,233.192 76.5,232.5C 78.5431,225.995 77.5431,219.828 73.5,214C 73.8361,212.97 74.5028,212.47 75.5,212.5C 101.518,256.488 140.185,275.655 191.5,270C 217.483,265.177 239.15,252.844 256.5,233C 213.835,232.5 171.168,232.333 128.5,232.5C 128.5,185.167 128.5,137.833 128.5,90.5C 148.169,90.6666 167.836,90.5 187.5,90C 186.511,77.2464 186.178,64.4131 186.5,51.5 Z"/></g>
<g><path style="opacity:0.975" fill="#f5f5f5" d="M 278.5,251.5 C 278.631,250.624 278.298,249.957 277.5,249.5C 272.086,256.085 265.919,261.752 259,266.5C 258.732,264.41 259.732,263.076 262,262.5C 263.217,260.48 263.383,258.48 262.5,256.5C 264.27,255.18 264.603,253.68 263.5,252C 264.672,251.581 265.672,250.915 266.5,250C 264.841,247.774 265.508,246.107 268.5,245C 267.692,244.692 267.025,244.192 266.5,243.5C 267.711,242.28 267.711,241.113 266.5,240C 267.167,239.667 267.833,239.333 268.5,239C 267.366,237.984 267.699,237.317 269.5,237C 268.786,235.657 269.12,234.324 270.5,233C 270.352,229.894 270.019,226.727 269.5,223.5C 270.264,221.039 271.264,218.539 272.5,216C 271.167,215.333 271.167,214.667 272.5,214C 271.833,212.667 270.833,211.667 269.5,211C 271.981,210.577 274.314,209.244 276.5,207C 277.838,203.867 278.671,200.701 279,197.5C 278.23,198.598 277.397,198.598 276.5,197.5C 290.65,148.583 278.65,107.417 240.5,74C 233.223,68.9019 225.557,64.4019 217.5,60.5C 216.5,77.8205 216.167,95.1539 216.5,112.5C 215.266,103.634 214.432,94.3005 214,84.5C 213.667,89.5 213.333,94.5 213,99.5C 211.542,98.2532 210.042,98.2532 208.5,99.5C 207.017,97.0542 205.851,97.3876 205,100.5C 203.559,99.13 201.892,98.13 200,97.5C 197.047,98.751 194.047,98.751 191,97.5C 189.527,97.9031 188.194,98.5697 187,99.5C 186.544,98.2559 187.044,97.4226 188.5,97C 188,96.5 187.5,96 187,95.5C 185.981,96.6872 184.814,97.6872 183.5,98.5C 183.167,97.8333 182.833,97.1667 182.5,96.5C 179.708,97.4453 177.208,97.4453 175,96.5C 173.445,98.1458 171.779,98.4791 170,97.5C 169.374,99.9913 168.541,99.9913 167.5,97.5C 166.284,98.0016 165.117,98.3349 164,98.5C 162.04,95.8537 160.04,95.8537 158,98.5C 152.254,98.3384 146.92,98.0051 142,97.5C 141.632,98.91 140.799,99.91 139.5,100.5C 138.033,100.277 136.533,99.9437 135,99.5C 134.333,100.167 133.667,100.833 133,101.5C 131.748,98.9865 131.248,96.3198 131.5,93.5C 150.845,93.8329 170.178,93.4996 189.5,92.5C 190.6,88.5575 190.767,84.5575 190,80.5C 189.667,83.8333 189.333,87.1667 189,90.5C 189.149,77.4419 188.315,64.4419 186.5,51.5C 133.684,48.3181 95.5178,70.3181 72,117.5C 59.1567,149.703 60.3234,181.37 75.5,212.5C 74.5028,212.47 73.8361,212.97 73.5,214C 77.5431,219.828 78.5431,225.995 76.5,232.5C 77.0253,233.192 77.6919,233.692 78.5,234C 77.228,236.044 77.5614,237.878 79.5,239.5C 79.2907,240.086 78.9574,240.586 78.5,241C 79.9522,244.083 80.9522,247.083 81.5,250C 81.1667,250.333 80.8333,250.667 80.5,251C 83.1667,251.667 83.1667,252.333 80.5,253C 82.3008,253.317 82.6341,253.984 81.5,255C 82.6117,259.048 84.2783,262.548 86.5,265.5C 77.5417,260.034 69.7084,252.034 63,241.5C 62.5172,242.448 62.3505,243.448 62.5,244.5C 38.1521,211.423 29.6521,174.423 37,133.5C 48.0977,85.4067 76.2643,51.5734 121.5,32C 171.165,14.2375 217.165,20.9042 259.5,52C 304.785,91.5254 320.618,140.692 307,199.5C 301.352,219.144 291.852,236.477 278.5,251.5 Z M 276.5,197.5 C 275.462,200.777 274.129,203.943 272.5,207C 233.168,207.5 193.835,207.667 154.5,207.5C 154.5,195.167 154.5,182.833 154.5,170.5C 173.5,170.5 192.5,170.5 211.5,170.5C 211.5,162.167 211.5,153.833 211.5,145.5C 192.5,145.5 173.5,145.5 154.5,145.5C 154.5,135.5 154.5,125.5 154.5,115.5C 175.167,115.5 195.833,115.5 216.5,115.5C 216.5,114.5 216.5,113.5 216.5,112.5C 216.167,95.1539 216.5,77.8205 217.5,60.5C 225.557,64.4019 233.223,68.9019 240.5,74C 278.65,107.417 290.65,148.583 276.5,197.5 Z"/></g>
<g><path style="opacity:0.966" fill="#f4f4f4" d="M 928.5,68.5 C 942.558,67.34 955.891,69.84 968.5,76C 978.663,82.9875 984.996,92.4875 987.5,104.5C 976.811,106.371 966.144,108.371 955.5,110.5C 953.17,101.175 947.17,96.1753 937.5,95.5C 926.514,95.9839 920.014,101.651 918,112.5C 915.943,123.658 916.61,134.658 920,145.5C 923.466,152.405 929.132,155.738 937,155.5C 944.262,155.87 949.595,152.87 953,146.5C 954.53,142.91 955.864,139.243 957,135.5C 957.561,134.978 958.228,134.645 959,134.5C 968.536,137.401 978.036,140.401 987.5,143.5C 985.376,163.476 974.376,175.976 954.5,181C 939.581,183.542 924.914,182.542 910.5,178C 889.813,166.812 879.813,149.312 880.5,125.5C 880.421,92.5315 896.421,73.5315 928.5,68.5 Z"/></g>
<g><path style="opacity:0.905" fill="#2dcdf0" d="M 361.5,70.5 C 386.167,70.5 410.833,70.5 435.5,70.5C 435.5,78.8333 435.5,87.1667 435.5,95.5C 421.5,95.5 407.5,95.5 393.5,95.5C 388.572,94.8934 383.572,94.0601 378.5,93C 383.11,92.648 383.61,91.148 380,88.5C 379.667,88.8333 379.333,89.1667 379,89.5C 378.71,87.9559 378.044,86.6226 377,85.5C 376.333,86.8333 375.667,86.8333 375,85.5C 374.196,82.2427 372.363,79.7427 369.5,78C 369.833,77.6667 370.167,77.3333 370.5,77C 369.007,75.6319 367.507,75.4652 366,76.5C 365.641,73.4557 364.974,73.1224 364,75.5C 361.175,73.8122 358.009,72.9789 354.5,73C 356.101,72.7266 357.601,72.2266 359,71.5C 360.461,72.8825 361.294,72.5492 361.5,70.5 Z"/></g>
<g><path style="opacity:0.949" fill="#f6f6f6" d="M 658.5,70.5 C 693.167,70.5 727.833,70.5 762.5,70.5C 762.5,79.8333 762.5,89.1667 762.5,98.5C 751.167,98.5 739.833,98.5 728.5,98.5C 728.5,125.833 728.5,153.167 728.5,180.5C 716.5,180.5 704.5,180.5 692.5,180.5C 692.5,153.167 692.5,125.833 692.5,98.5C 681.162,98.6665 669.828,98.4999 658.5,98C 657.179,88.8335 657.179,79.6668 658.5,70.5 Z"/></g>
<g><path style="opacity:0.952" fill="#f5f5f5" d="M 775.5,70.5 C 806.167,70.5 836.833,70.5 867.5,70.5C 867.5,78.8333 867.5,87.1667 867.5,95.5C 848.833,95.5 830.167,95.5 811.5,95.5C 811.5,100.5 811.5,105.5 811.5,110.5C 828.833,110.5 846.167,110.5 863.5,110.5C 863.5,118.5 863.5,126.5 863.5,134.5C 846.167,134.5 828.833,134.5 811.5,134.5C 811.811,141.09 811.478,147.59 810.5,154C 830.164,154.5 849.831,154.667 869.5,154.5C 869.5,163.167 869.5,171.833 869.5,180.5C 838.167,180.5 806.833,180.5 775.5,180.5C 775.5,143.833 775.5,107.167 775.5,70.5 Z"/></g>
<g><path style="opacity:0.974" fill="#f0f0f0" d="M 1002.5,70.5 C 1014.5,70.5 1026.5,70.5 1038.5,70.5C 1038.5,83.1667 1038.5,95.8333 1038.5,108.5C 1050.17,108.5 1061.83,108.5 1073.5,108.5C 1073.5,95.8333 1073.5,83.1667 1073.5,70.5C 1085.5,70.5 1097.5,70.5 1109.5,70.5C 1109.5,107.167 1109.5,143.833 1109.5,180.5C 1097.5,180.5 1085.5,180.5 1073.5,180.5C 1073.5,165.833 1073.5,151.167 1073.5,136.5C 1061.83,136.5 1050.17,136.5 1038.5,136.5C 1038.5,151.167 1038.5,165.833 1038.5,180.5C 1026.5,180.5 1014.5,180.5 1002.5,180.5C 1002.5,143.833 1002.5,107.167 1002.5,70.5 Z"/></g>
<g><path style="opacity:0.984" fill="#24c3eb" d="M 361.5,70.5 C 361.294,72.5492 360.461,72.8825 359,71.5C 357.601,72.2266 356.101,72.7266 354.5,73C 358.009,72.9789 361.175,73.8122 364,75.5C 364.974,73.1224 365.641,73.4557 366,76.5C 367.507,75.4652 369.007,75.6319 370.5,77C 370.167,77.3333 369.833,77.6667 369.5,78C 372.363,79.7427 374.196,82.2427 375,85.5C 375.667,86.8333 376.333,86.8333 377,85.5C 378.044,86.6226 378.71,87.9559 379,89.5C 379.333,89.1667 379.667,88.8333 380,88.5C 383.61,91.148 383.11,92.648 378.5,93C 383.572,94.0601 388.572,94.8934 393.5,95.5C 388.833,95.5 384.167,95.5 379.5,95.5C 379.5,100.5 379.5,105.5 379.5,110.5C 396.833,110.5 414.167,110.5 431.5,110.5C 431.5,118.5 431.5,126.5 431.5,134.5C 414.167,134.5 396.833,134.5 379.5,134.5C 379.5,138.5 379.5,142.5 379.5,146.5C 377.932,144.069 376.432,144.069 375,146.5C 372.887,143.324 370.887,139.991 369,136.5C 368.667,137.167 368.333,137.833 368,138.5C 364.667,135.833 361.667,132.833 359,129.5C 358.667,130.167 358.333,130.833 358,131.5C 357.682,129.939 356.849,128.772 355.5,128C 356.258,126.636 355.758,125.469 354,124.5C 353.667,124.833 353.333,125.167 353,125.5C 352,123.5 351,121.5 350,119.5C 349.667,120.167 349.333,120.833 349,121.5C 347.084,118.102 346.084,114.435 346,110.5C 345.79,112.058 345.29,113.391 344.5,114.5C 344.5,99.8333 344.5,85.1667 344.5,70.5C 350.167,70.5 355.833,70.5 361.5,70.5 Z"/></g>
<g><path style="opacity:0.997" fill="#37d5f2" d="M 533.5,136.5 C 533.539,137.756 533.039,138.756 532,139.5C 531.333,138.167 530.667,138.167 530,139.5C 529.405,135.918 528.071,135.584 526,138.5C 525.517,137.552 525.351,136.552 525.5,135.5C 522.509,134.008 519.509,133.008 516.5,132.5C 515.558,132.608 514.725,132.941 514,133.5C 513.333,132.167 512.667,130.833 512,129.5C 510.127,130.089 508.46,129.422 507,127.5C 505.057,127.959 503.724,126.959 503,124.5C 502.667,125.5 502.333,126.5 502,127.5C 500.152,125.982 498.652,124.149 497.5,122C 495.892,121.342 494.725,121.842 494,123.5C 493.784,121.616 493.117,119.949 492,118.5C 491.667,118.833 491.333,119.167 491,119.5C 487.31,117.175 483.81,114.508 480.5,111.5C 479.914,111.709 479.414,112.043 479,112.5C 478.577,111.044 477.744,110.544 476.5,111C 476.833,111.333 477.167,111.667 477.5,112C 476.186,112.985 475.186,114.152 474.5,115.5C 464.665,101.167 455.332,86.5003 446.5,71.5C 459.154,70.334 471.82,70.1674 484.5,71C 491.045,81.2533 497.212,91.7533 503,102.5C 508.453,91.7583 514.286,81.2583 520.5,71C 533.513,70.1673 546.513,70.334 559.5,71.5C 548.042,88.9149 536.709,106.415 525.5,124C 528.562,127.969 531.229,132.136 533.5,136.5 Z"/></g>
<g><path style="opacity:0.986" fill="#43def5" d="M 657.5,117.5 C 656.608,119.362 656.441,121.362 657,123.5C 654.828,122.415 652.828,121.081 651,119.5C 650.333,120.167 649.667,120.833 649,121.5C 647.285,119.093 645.118,118.426 642.5,119.5C 639.178,118.271 635.512,116.938 631.5,115.5C 630.5,116.833 629.5,116.833 628.5,115.5C 627.749,116.376 627.249,117.376 627,118.5C 626.329,117.748 625.496,117.414 624.5,117.5C 622.709,112.96 621.209,108.293 620,103.5C 618.523,107.429 617.356,111.429 616.5,115.5C 613.357,113.6 610.523,111.934 608,110.5C 607.692,111.308 607.192,111.975 606.5,112.5C 604.261,110.195 601.761,108.861 599,108.5C 598.667,109.5 598.333,110.5 598,111.5C 596.888,108.697 595.054,107.697 592.5,108.5C 591.459,106.009 590.626,106.009 590,108.5C 589.583,107.244 588.75,106.577 587.5,106.5C 591.87,94.5598 596.536,82.7264 601.5,71C 614.167,70.3333 626.833,70.3333 639.5,71C 645.601,86.4726 651.601,101.973 657.5,117.5 Z"/></g>
<g><path style="opacity:0.996" fill="#2ccbef" d="M 533.5,136.5 C 542.982,149.451 551.982,162.784 560.5,176.5C 561.234,177.708 561.567,179.041 561.5,180.5C 548.496,180.667 535.496,180.5 522.5,180C 516.042,168.914 509.208,158.08 502,147.5C 495.292,158.418 488.458,169.251 481.5,180C 468.5,180.667 455.5,180.667 442.5,180C 454.323,160.692 466.656,141.692 479.5,123C 477.611,120.618 475.945,118.118 474.5,115.5C 475.186,114.152 476.186,112.985 477.5,112C 477.167,111.667 476.833,111.333 476.5,111C 477.744,110.544 478.577,111.044 479,112.5C 479.414,112.043 479.914,111.709 480.5,111.5C 483.81,114.508 487.31,117.175 491,119.5C 491.333,119.167 491.667,118.833 492,118.5C 493.117,119.949 493.784,121.616 494,123.5C 494.725,121.842 495.892,121.342 497.5,122C 498.652,124.149 500.152,125.982 502,127.5C 502.333,126.5 502.667,125.5 503,124.5C 503.724,126.959 505.057,127.959 507,127.5C 508.46,129.422 510.127,130.089 512,129.5C 512.667,130.833 513.333,132.167 514,133.5C 514.725,132.941 515.558,132.608 516.5,132.5C 519.509,133.008 522.509,134.008 525.5,135.5C 525.351,136.552 525.517,137.552 526,138.5C 528.071,135.584 529.405,135.918 530,139.5C 530.667,138.167 531.333,138.167 532,139.5C 533.039,138.756 533.539,137.756 533.5,136.5 Z"/></g>
<g><path style="opacity:0.976" fill="#34d3f2" d="M 587.5,106.5 C 588.75,106.577 589.583,107.244 590,108.5C 590.626,106.009 591.459,106.009 592.5,108.5C 595.054,107.697 596.888,108.697 598,111.5C 598.333,110.5 598.667,109.5 599,108.5C 601.761,108.861 604.261,110.195 606.5,112.5C 607.192,111.975 607.692,111.308 608,110.5C 610.523,111.934 613.357,113.6 616.5,115.5C 614.326,122.519 611.993,129.519 609.5,136.5C 616.476,137.664 623.476,137.831 630.5,137C 628.2,130.6 626.2,124.1 624.5,117.5C 625.496,117.414 626.329,117.748 627,118.5C 627.249,117.376 627.749,116.376 628.5,115.5C 629.5,116.833 630.5,116.833 631.5,115.5C 635.512,116.938 639.178,118.271 642.5,119.5C 645.118,118.426 647.285,119.093 649,121.5C 649.667,120.833 650.333,120.167 651,119.5C 652.828,121.081 654.828,122.415 657,123.5C 656.441,121.362 656.608,119.362 657.5,117.5C 665.367,138.435 673.034,159.435 680.5,180.5C 668.162,180.667 655.829,180.5 643.5,180C 641.328,174.315 639.661,168.482 638.5,162.5C 626.167,162.5 613.833,162.5 601.5,162.5C 600.041,168.213 598.374,173.88 596.5,179.5C 584.852,180.499 573.186,180.832 561.5,180.5C 561.567,179.041 561.234,177.708 560.5,176.5C 569.872,153.394 578.872,130.061 587.5,106.5 Z"/></g>
<g><path style="opacity:0.99" fill="#1eb9e7" d="M 379.5,146.5 C 379.5,149.167 379.5,151.833 379.5,154.5C 398.833,154.5 418.167,154.5 437.5,154.5C 437.5,163.167 437.5,171.833 437.5,180.5C 406.5,180.5 375.5,180.5 344.5,180.5C 344.5,158.5 344.5,136.5 344.5,114.5C 345.29,113.391 345.79,112.058 346,110.5C 346.084,114.435 347.084,118.102 349,121.5C 349.333,120.833 349.667,120.167 350,119.5C 351,121.5 352,123.5 353,125.5C 353.333,125.167 353.667,124.833 354,124.5C 355.758,125.469 356.258,126.636 355.5,128C 356.849,128.772 357.682,129.939 358,131.5C 358.333,130.833 358.667,130.167 359,129.5C 361.667,132.833 364.667,135.833 368,138.5C 368.333,137.833 368.667,137.167 369,136.5C 370.887,139.991 372.887,143.324 375,146.5C 376.432,144.069 377.932,144.069 379.5,146.5 Z"/></g>
<g><path style="opacity:0.945" fill="#e9e9e9" d="M 348.5,192.5 C 361.837,192.333 375.171,192.5 388.5,193C 397.078,195.915 401.412,201.915 401.5,211C 401.463,221.372 396.463,228.039 386.5,231C 380.509,231.499 374.509,231.666 368.5,231.5C 368.5,239.167 368.5,246.833 368.5,254.5C 361.833,254.5 355.167,254.5 348.5,254.5C 348.5,233.833 348.5,213.167 348.5,192.5 Z M 368.5,205.5 C 371.747,206.252 375.081,206.752 378.5,207C 382.485,210.286 382.485,213.619 378.5,217C 375.183,217.498 371.85,217.665 368.5,217.5C 368.5,213.5 368.5,209.5 368.5,205.5 Z"/></g>
<g><path style="opacity:0.928" fill="#f1f1f1" d="M 658.5,192.5 C 665.167,192.5 671.833,192.5 678.5,192.5C 678.5,213.167 678.5,233.833 678.5,254.5C 671.91,254.811 665.41,254.478 659,253.5C 658.5,233.169 658.333,212.836 658.5,192.5 Z"/></g>
<g><path style="opacity:0.939" fill="#f0f0f0" d="M 799.5,192.5 C 806.167,192.5 812.833,192.5 819.5,192.5C 819.334,201.839 819.5,211.173 820,220.5C 823.15,216.383 826.65,212.549 830.5,209C 837.826,208.5 845.159,208.334 852.5,208.5C 852.719,209.675 852.386,210.675 851.5,211.5C 846.5,215.833 841.833,220.5 837.5,225.5C 843.639,234.782 848.972,244.449 853.5,254.5C 846.468,254.83 839.468,254.497 832.5,253.5C 830.173,248.175 827.34,243.175 824,238.5C 822.667,239.833 821.333,241.167 820,242.5C 819.501,246.486 819.334,250.486 819.5,254.5C 812.91,254.811 806.41,254.478 800,253.5C 799.5,233.169 799.333,212.836 799.5,192.5 Z"/></g>
<g><path style="opacity:0.903" fill="#eeeeee" d="M 913.5,192.5 C 919.833,192.5 926.167,192.5 932.5,192.5C 932.334,199.175 932.5,205.842 933,212.5C 939.972,207.076 947.472,206.243 955.5,210C 957.917,211.663 959.75,213.829 961,216.5C 962.441,229.092 962.941,241.759 962.5,254.5C 955.91,254.811 949.41,254.478 943,253.5C 942.667,243.833 942.333,234.167 942,224.5C 937.238,221.375 934.238,222.708 933,228.5C 932.5,237.16 932.334,245.827 932.5,254.5C 926.167,254.5 919.833,254.5 913.5,254.5C 913.5,233.833 913.5,213.167 913.5,192.5 Z"/></g>
<g><path style="opacity:0.949" fill="#efefee" d="M 532.5,192.5 C 539.5,192.5 546.5,192.5 553.5,192.5C 553.5,213.167 553.5,233.833 553.5,254.5C 546.5,254.5 539.5,254.5 532.5,254.5C 532.5,233.833 532.5,213.167 532.5,192.5 Z"/></g>
<g><path style="opacity:0.959" fill="#f0f0f0" d="M 593.5,192.5 C 608.17,192.333 622.837,192.5 637.5,193C 648.745,198.068 651.579,206.234 646,217.5C 644.421,219.041 642.587,220.208 640.5,221C 648.233,223.304 651.899,228.47 651.5,236.5C 650.374,248.45 643.708,254.283 631.5,254C 618.838,254.5 606.171,254.667 593.5,254.5C 593.5,233.833 593.5,213.167 593.5,192.5 Z M 614.5,205.5 C 618.605,205.234 622.605,205.734 626.5,207C 629.167,209.667 629.167,212.333 626.5,215C 622.514,215.499 618.514,215.666 614.5,215.5C 614.5,212.167 614.5,208.833 614.5,205.5 Z M 614.5,228.5 C 619.232,228.378 623.898,228.878 628.5,230C 631.299,233.339 630.966,236.339 627.5,239C 623.179,239.499 618.846,239.666 614.5,239.5C 614.5,235.833 614.5,232.167 614.5,228.5 Z"/></g>
<g><path style="opacity:1" fill="#eeeeee" d="M 1027.5,192.5 C 1033.83,192.5 1040.17,192.5 1046.5,192.5C 1046.5,196.833 1046.5,201.167 1046.5,205.5C 1040.49,205.666 1034.49,205.499 1028.5,205C 1027.54,200.934 1027.2,196.767 1027.5,192.5 Z"/></g>
<g><path style="opacity:0.935" fill="#f0f0f0" d="M 707.5,207.5 C 730.545,207.035 740.045,218.035 736,240.5C 730.861,250.579 722.527,255.579 711,255.5C 691.62,254.722 682.953,244.722 685,225.5C 688.866,214.786 696.366,208.786 707.5,207.5 Z M 710.5,220.5 C 716.074,221.96 718.407,225.626 717.5,231.5C 718.334,236.839 716.334,240.506 711.5,242.5C 705.791,241.115 703.124,237.448 703.5,231.5C 703.626,226.212 705.959,222.545 710.5,220.5 Z"/></g>
<g><path style="opacity:0.92" fill="#f0f0f0" d="M 763.5,207.5 C 772.994,206.6 781.494,208.933 789,214.5C 791.324,217.48 792.824,220.813 793.5,224.5C 788.484,224.978 783.484,225.645 778.5,226.5C 775.5,224.352 772.333,222.352 769,220.5C 762.757,221.751 759.923,225.584 760.5,232C 760.635,241.227 764.968,244.227 773.5,241C 774.46,239.581 775.293,238.081 776,236.5C 776.893,235.919 777.893,235.585 779,235.5C 784.161,236.277 789.327,236.944 794.5,237.5C 792.93,245.574 788.263,251.074 780.5,254C 768.699,257.098 757.699,255.431 747.5,249C 741.338,240.72 739.838,231.553 743,221.5C 747.282,212.953 754.115,208.286 763.5,207.5 Z"/></g>
<g><path style="opacity:0.923" fill="#efefef" d="M 877.5,207.5 C 887.85,206.349 896.683,209.349 904,216.5C 905.167,218.833 906.333,221.167 907.5,223.5C 901.294,225.234 894.96,226.234 888.5,226.5C 888.225,222.891 886.225,220.891 882.5,220.5C 876.293,221.719 873.293,225.552 873.5,232C 873.756,239.261 877.422,242.595 884.5,242C 887.12,239.87 889.62,237.703 892,235.5C 897.161,236.277 902.327,236.944 907.5,237.5C 905.945,245.561 901.278,251.061 893.5,254C 883.127,256.525 873.127,255.525 863.5,251C 854.843,243.21 852.343,233.71 856,222.5C 860.341,213.309 867.507,208.309 877.5,207.5 Z"/></g>
<g><path style="opacity:0.925" fill="#e8e8e8" d="M 1084.5,207.5 C 1095.39,206.241 1101.89,210.908 1104,221.5C 1104.5,232.495 1104.67,243.495 1104.5,254.5C 1097.83,254.5 1091.17,254.5 1084.5,254.5C 1084.67,244.828 1084.5,235.161 1084,225.5C 1082.21,222.098 1079.71,221.598 1076.5,224C 1075.81,225.067 1075.31,226.234 1075,227.5C 1074.5,236.494 1074.33,245.494 1074.5,254.5C 1068.17,254.5 1061.83,254.5 1055.5,254.5C 1055.5,239.167 1055.5,223.833 1055.5,208.5C 1061.5,208.5 1067.5,208.5 1073.5,208.5C 1073.34,210.199 1073.51,211.866 1074,213.5C 1077.07,210.554 1080.57,208.554 1084.5,207.5 Z"/></g>
<g><path style="opacity:0.95" fill="#ebebeb" d="M 428.5,207.5 C 449.766,206.597 459.599,216.597 458,237.5C 453.885,249.492 445.385,255.492 432.5,255.5C 413.464,254.417 404.964,244.417 407,225.5C 410.74,215.249 417.906,209.249 428.5,207.5 Z M 431.5,220.5 C 437.532,221.516 440.532,225.182 440.5,231.5C 440.875,237.449 438.208,241.116 432.5,242.5C 427.184,240.901 424.517,237.234 424.5,231.5C 424.628,226.205 426.961,222.539 431.5,220.5 Z"/></g>
<g><path style="opacity:0.95" fill="#ececec" d="M 988.5,207.5 C 996.767,207.038 1004.77,208.205 1012.5,211C 1016.53,213.761 1018.7,217.594 1019,222.5C 1019.33,231.833 1019.67,241.167 1020,250.5C 1020.5,251.5 1021,252.5 1021.5,253.5C 1015.53,254.664 1009.53,254.83 1003.5,254C 1002.3,253.097 1001.47,251.931 1001,250.5C 991.824,256.466 982.324,256.966 972.5,252C 965.8,244.73 966.133,237.73 973.5,231C 982.114,228.543 990.78,226.209 999.5,224C 1000.24,220.765 998.738,219.265 995,219.5C 991.101,219.175 988.935,220.842 988.5,224.5C 982.489,224.199 976.489,223.699 970.5,223C 970.03,216.969 972.697,212.635 978.5,210C 981.952,209.115 985.286,208.282 988.5,207.5 Z M 997.5,234.5 C 998.675,234.281 999.675,234.614 1000.5,235.5C 999.065,243.294 994.899,245.628 988,242.5C 987.333,241.167 987.333,239.833 988,238.5C 991.139,236.85 994.306,235.517 997.5,234.5 Z"/></g>
<g><path style="opacity:0.979" fill="#eaeaea" d="M 1027.5,208.5 C 1033.83,208.5 1040.17,208.5 1046.5,208.5C 1046.5,223.833 1046.5,239.167 1046.5,254.5C 1040.17,254.5 1033.83,254.5 1027.5,254.5C 1027.5,239.167 1027.5,223.833 1027.5,208.5 Z"/></g>
<g><path style="opacity:0.98" fill="#ededed" d="M 482.5,192.5 C 490.196,192.169 497.862,192.503 505.5,193.5C 513.243,213.733 520.577,234.067 527.5,254.5C 520.492,254.666 513.492,254.5 506.5,254C 504.998,250.995 503.998,247.829 503.5,244.5C 496.8,244.17 490.134,244.503 483.5,245.5C 482.727,248.431 481.727,251.264 480.5,254C 473.508,254.5 466.508,254.666 459.5,254.5C 466.771,233.686 474.438,213.019 482.5,192.5 Z M 492.5,214.5 C 493.497,214.47 494.164,214.97 494.5,216C 495.936,220.141 497.269,224.308 498.5,228.5C 495.167,229.833 491.833,229.833 488.5,228.5C 490.147,223.909 491.481,219.243 492.5,214.5 Z"/></g>
</svg>
